<?xml version="1.0" encoding="utf-8"?>
<svg viewBox="126.6898 92.224 88 49" xmlns="http://www.w3.org/2000/svg">
  <path d="M1141 551C1141 554.866 1137.87 558 1134 558 1130.13 558 1127 554.866 1127 551 1127 547.134 1130.13 544 1134 544 1137.87 544 1141 547.134 1141 551Z" style="fill: rgb(194, 22, 22);" transform="matrix(1, 0, 0, 1, -991.3101806640626, -416.7760009765625)"/>
  <path d="M1199 551C1199 554.866 1195.87 558 1192 558 1188.13 558 1185 554.866 1185 551 1185 547.134 1188.13 544 1192 544 1195.87 544 1199 547.134 1199 551Z" style="fill: rgb(194, 22, 22);" transform="matrix(1, 0, 0, 1, -991.3101806640626, -416.7760009765625)"/>
  <path d="M1118 509 1174 509 1174 533 1118 533Z" style="fill: rgb(194, 22, 22);" transform="matrix(1, 0, 0, 1, -991.3101806640626, -416.7760009765625)"/>
  <path d="M1182 519 1188 519C1189.8 519 1191.4 520.2 1191.8 521.9L1193.8 528.8C1193.8 528.9 1193.9 528.9 1193.9 529L1182 529 1182 519ZM1188 515 1178 515 1178 529 1178 535 1178 551 1182 551C1182 545.5 1186.5 541 1192 541 1197.5 541 1202 545.5 1202 551 1204.2 551 1206 549.2 1206 547L1206 537C1206 535.7 1205.4 534.6 1204.4 533.8L1199.1 529.8C1198.4 529.3 1197.9 528.5 1197.7 527.7L1195.7 520.8C1194.7 517.4 1191.5 515 1188 515Z" style="fill: rgb(194, 22, 22);" transform="matrix(1, 0, 0, 1, -991.3101806640626, -416.7760009765625)"/>
  <path d="M1174 551 1144 551C1144 545.5 1139.5 541 1134 541 1128.5 541 1124 545.5 1124 551L1118 551 1118 537 1174 537 1174 551Z" style="fill: rgb(194, 22, 22);" transform="matrix(1, 0, 0, 1, -991.3101806640626, -416.7760009765625)"/>
</svg>