<svg width="96" height="96" xmlns="http://www.w3.org/2000/svg" xmlns:xlink="http://www.w3.org/1999/xlink" xml:space="preserve" overflow="hidden"><g transform="translate(-592 -312)"><path d="M638 326 642 326 642 338 638 338Z"/><path d="M669.909 332.97 661.919 340.96 659.09 338.132 667.081 330.141Z"/><path d="M620.859 338.081 618.031 340.91 610.041 332.919 612.869 330.091Z"/><path d="M664 354 674 354 674 358 664 358Z"/><path d="M606 354 616 354 616 358 606 358Z"/><path d="M624 382 627.4 348 652.5 348 656 382 624 382ZM668 382 662 382 658.4 345.6C658.2 343.6 656.5 342 654.4 342L625.6 342C623.5 342 621.8 343.6 621.6 345.6L618 382 612 382 612 388 606 388 606 394 674 394 674 388 668 388 668 382Z"/><path d="M644.8 352 647.3 378 651.4 378 648.8 352Z"/></g></svg>