<svg width="96" height="96" xmlns="http://www.w3.org/2000/svg" xmlns:xlink="http://www.w3.org/1999/xlink" xml:space="preserve" overflow="hidden"><g transform="translate(-853 -442)"><path d="M883.006 486C883.006 490.418 879.424 494 875.006 494 870.588 494 867.006 490.418 867.006 486 867.006 481.582 870.588 478 875.006 478 879.424 478 883.006 481.582 883.006 486Z"/><path d="M935.006 486C935.006 490.418 931.424 494 927.006 494 922.588 494 919.006 490.418 919.006 486 919.006 481.582 922.588 478 927.006 478 931.424 478 935.006 481.582 935.006 486Z"/><path d="M937.006 466 928.706 466C927.642 466.03 926.618 465.591 925.906 464.8L913.306 452.3C911.793 450.798 909.738 449.969 907.606 450L874.306 450C872.178 449.988 870.13 450.814 868.606 452.3L856.206 464.8C855.428 465.563 854.994 466.61 855.006 467.7L855.006 478C855.019 482.413 858.593 485.987 863.006 486L864.006 486C864.006 479.925 868.931 475 875.006 475 881.081 475 886.006 479.925 886.006 486L916.006 486C916.006 479.925 920.931 475 927.006 475 933.081 475 938.006 479.925 938.006 486L943.006 486C945.212 485.993 946.999 484.206 947.006 482L947.006 476C946.99 470.484 942.522 466.016 937.006 466ZM886.006 466 860.706 466 871.506 455.2C872.241 454.442 873.25 454.009 874.306 454L886.006 454ZM890.006 466 890.006 454 907.706 454C908.77 453.97 909.794 454.409 910.506 455.2L921.306 466Z"/><path d="M906.006 493 916.006 493 916.006 489 886.006 489 886.006 493 896.006 493 896.006 526 855.006 526 855.006 530 947.006 530 947.006 526 906.006 526 906.006 493Z"/></g></svg>