<?xml version="1.0" encoding="utf-8"?>
<svg viewBox="372.7219 234.3131 92 31" xmlns="http://www.w3.org/2000/svg">
  <path d="M994.006 452.627 982.381 452.627 978.506 441.002 974.631 452.627 963.506 452.627 963.006 452.627 951.881 452.627 948.006 441.002 944.131 452.627 933.006 452.627 932.506 452.627 921.381 452.627 917.506 441.002 913.631 452.627 902.006 452.627 910.918 460.377 907.431 472.002 917.506 465.027 927.581 472.002 924.094 460.377 932.756 452.845 941.418 460.377 937.931 472.002 948.006 465.027 958.081 472.002 954.594 460.377 963.256 452.845 971.918 460.377 968.431 472.002 978.506 465.027 988.581 472.002 985.094 460.377 994.006 452.627Z" style="fill: rgb(218, 229, 2);" transform="matrix(1, 0, 0, 1, -529.2840576171875, -206.68887329101565)"/>
</svg>