<svg width="96" height="96" xmlns="http://www.w3.org/2000/svg" xmlns:xlink="http://www.w3.org/1999/xlink" xml:space="preserve" overflow="hidden"><g transform="translate(-941 -318)"><path d="M995.764 373.3C996.89 374.394 996.916 376.194 995.822 377.32 995.803 377.34 995.784 377.359 995.764 377.378L990.882 378.986 990.021 378.125 991.629 373.243C992.795 372.138 994.629 372.163 995.764 373.3ZM1017.82 343.831 989.624 372.094 986 383.007 996.97 379.388 1025.18 351.188Z"/><path d="M1031.32 341.767 1027.24 337.689C1026.36 336.785 1024.91 336.768 1024 337.652 1023.99 337.664 1023.98 337.677 1023.97 337.689L1019.95 341.71 1027.24 349 1031.26 344.98C1032.16 344.186 1032.25 342.812 1031.46 341.91 1031.41 341.861 1031.37 341.813 1031.32 341.767Z"/><path d="M967 383 982.842 383 984.168 379 967 379 967 383Z"/><path d="M967 359 998.448 359 1002.44 355 967 355 967 359Z"/><path d="M1011 369.6 1011 400 961 400 961 338 972 338 972 344 1000 344 1000 338 1011 338 1011 346.422 1015.7 341.71 1015.7 341.71 1015.87 341.539 1017 340.41 1017 336C1017 333.791 1015.21 332 1013 332L996 332 996 330C996 327.791 994.209 326 992 326L980 326C977.791 326 976 327.791 976 330L976 332 959 332C956.791 332 955 333.791 955 336L955 402C955 404.209 956.791 406 959 406L1013 406C1015.21 406 1017 404.209 1017 402L1017 363.6ZM983.864 330.864C984.429 330.298 985.2 329.986 986 330 987.657 330 989 331.343 989 333 989 334.657 987.657 336 986 336 984.343 336 983 334.657 983 333 982.986 332.2 983.298 331.429 983.864 330.864Z"/><path d="M967 371 986.448 371 990.44 367 967 367 967 371Z"/></g></svg>