<svg width="96" height="96" xmlns="http://www.w3.org/2000/svg" xmlns:xlink="http://www.w3.org/1999/xlink" xml:space="preserve" overflow="hidden"><g transform="translate(-831 -510)"><path d="M879 570C872.4 570 867 564.6 867 558 867 551.4 872.4 546 879 546 885.6 546 891 551.4 891 558 891 564.6 885.6 570 879 570ZM906 550.5C905.4 548.3 904.5 546.2 903.4 544.3L905.9 536.8 900.2 531.1 892.7 533.6C890.7 532.5 888.6 531.6 886.4 531L883 524 875 524 871.5 531C869.3 531.6 867.2 532.5 865.3 533.6L857.8 531.1 852.1 536.8 854.6 544.3C853.5 546.3 852.6 548.4 852 550.6L845 554 845 562 852 565.5C852.6 567.7 853.5 569.8 854.6 571.7L852.1 579.2 857.8 584.9 865.3 582.4C867.3 583.5 869.4 584.4 871.6 585L875.1 592 883.1 592 886.6 585C888.8 584.4 890.9 583.5 892.8 582.4L900.3 584.9 906 579.2 903.5 571.7C904.6 569.7 905.5 567.6 906.1 565.4L913.1 561.9 913.1 553.9 906 550.5Z"/></g></svg>