<svg width="96" height="96" xmlns="http://www.w3.org/2000/svg" xmlns:xlink="http://www.w3.org/1999/xlink" xml:space="preserve" overflow="hidden"><g transform="translate(-662 -226)"><path d="M710.005 243C692.884 243 679.005 256.879 679.005 274 679.005 291.121 692.884 305 710.005 305 727.126 305 741.005 291.121 741.005 274 740.985 256.887 727.118 243.02 710.005 243ZM710.005 284C704.482 284 700.005 279.523 700.005 274 700.005 268.477 704.482 264 710.005 264 715.528 264 720.005 268.477 720.005 274 719.999 279.52 715.525 283.994 710.005 284ZM698.154 275.795 682.308 265.396C682.985 263.227 683.917 261.145 685.082 259.194L702.621 264.561C699.181 267.201 697.466 271.514 698.154 275.795ZM717.389 264.561 734.927 259.194C736.093 261.145 737.024 263.227 737.702 265.396L721.856 275.795C722.544 271.514 720.828 267.201 717.389 264.561ZM710.005 245C719.495 245.004 728.383 249.654 733.797 257.449L715.123 263.163C711.887 261.612 708.122 261.612 704.886 263.163L686.212 257.448C691.627 249.654 700.514 245.004 710.005 245ZM681.005 274C681.006 271.789 681.261 269.585 681.764 267.431L698.979 278.728C699.638 280.249 700.604 281.617 701.816 282.747L704.637 302.494C690.943 299.897 681.024 287.938 681.005 274ZM706.701 302.806 704.075 284.419C707.747 286.527 712.262 286.527 715.935 284.419L713.308 302.806C711.114 303.065 708.896 303.065 706.701 302.806ZM715.373 302.494 718.194 282.747C719.406 281.617 720.372 280.249 721.031 278.728L738.245 267.431C741.885 283.011 732.206 298.591 716.626 302.23 716.211 302.327 715.793 302.415 715.373 302.494Z"/><path d="M710.005 268C706.691 268 704.005 270.686 704.005 274 704.005 277.314 706.691 280 710.005 280 713.318 280 716.005 277.314 716.005 274 716.001 270.688 713.317 268.004 710.005 268ZM710.005 278C707.796 278 706.005 276.209 706.005 274 706.005 271.791 707.796 270 710.005 270 712.214 270 714.005 271.791 714.005 274 714.002 276.208 712.213 277.997 710.005 278Z"/><path d="M710.005 236C689.018 236 672.005 253.013 672.005 274 672.005 294.987 689.018 312 710.005 312 730.992 312 748.005 294.987 748.005 274 748.005 253.013 730.992 236 710.005 236ZM710.005 310C690.122 310 674.005 293.882 674.005 274 674.005 254.118 690.122 238 710.005 238 729.887 238 746.005 254.118 746.005 274 745.982 293.873 729.878 309.978 710.005 310Z"/></g></svg>