<?xml version="1.0" encoding="utf-8"?>
<svg viewBox="246.0579 24.816 126.206 58.5026" xmlns="http://www.w3.org/2000/svg">
  <path class="cls-2" d="M 259.688 30.016 C 239.588 42.416 250.988 79.116 250.988 80.016 C 276.488 62.916 337.988 87.016 358.588 75.916 C 378.888 64.916 367.588 29.016 367.588 29.016 C 336.088 44.916 279.088 18.016 259.688 30.016 Z" style="fill: rgb(255, 255, 255);"/>
  <path class="cls-1" d="M 368.688 27.816 L 359.888 24.916 L 359.588 24.916 L 359.288 24.816 C 352.088 31.316 338.988 31.916 324.188 30.816 C 317.688 30.316 310.888 29.516 304.088 28.616 C 299.288 28.116 294.388 27.516 289.588 27.116 C 289.317 27.126 289.047 27.092 288.788 27.016 C 288.288 27.016 287.688 26.916 287.188 26.916 C 281.788 26.416 276.688 26.116 271.988 26.116 C 258.788 26.416 248.888 32.816 246.488 51.116 L 246.488 51.516 C 244.688 66.116 249.088 81.516 249.588 81.816 C 249.688 81.816 249.688 81.916 249.788 81.916 L 257.088 83.316 L 257.188 83.316 C 257.297 83.329 257.408 83.292 257.488 83.216 C 267.488 74.116 290.888 76.516 313.388 78.816 C 324.988 80.116 336.888 81.316 346.688 80.916 C 348.288 80.816 349.788 80.716 351.288 80.516 C 363.788 78.616 370.388 70.716 371.888 56.116 C 373.588 41.016 368.988 28.016 368.688 27.816 M 259.388 30.616 C 278.788 18.716 335.888 45.316 367.088 29.616 C 367.088 29.616 378.388 64.916 358.088 75.716 C 337.588 86.716 275.988 62.916 250.488 79.816 C 250.688 79.016 239.388 42.816 259.388 30.616 M 330.088 79.416 C 330.488 79.416 331.088 79.516 331.488 79.516 C 331.088 79.516 330.488 79.416 330.088 79.416" style="fill: rgb(38, 53, 118);"/>
  <path class="cls-3" d="M 276.588 54.616 C 278.199 53.559 279.146 51.742 279.088 49.816 C 279.088 45.616 276.388 43.416 271.088 43.416 L 259.688 43.416 L 259.688 68.016 L 271.488 68.016 C 275.488 68.016 280.188 66.116 280.188 60.716 C 280.188 57.716 278.988 55.716 276.588 54.616 M 270.788 62.916 L 265.788 62.916 L 265.788 48.416 L 270.088 48.416 C 272.788 48.416 273.088 49.516 273.088 50.616 C 273.088 52.116 272.188 52.916 270.488 52.916 L 268.988 52.916 L 266.888 57.416 L 270.888 57.416 C 273.088 57.416 273.988 58.316 273.988 60.216 C 274.188 61.416 273.688 62.916 270.788 62.916" style="fill: rgb(230, 37, 48);"/>
  <rect class="cls-3" x="281.688" y="43.416" width="6.2" height="24.6" style="fill: rgb(230, 37, 48);"/>
  <polygon class="cls-3" points="302.688 57.216 299.588 43.316 289.888 43.316 289.888 67.816 295.988 67.816 295.988 52.816 299.588 67.816 305.788 67.816 309.388 52.616 309.388 67.816 315.488 67.816 315.488 43.316 305.788 43.316 302.688 57.216" style="fill: rgb(230, 37, 48);"/>
  <path class="cls-3" d="M 334.688 54.716 C 336.299 53.659 337.246 51.842 337.188 49.916 C 337.188 45.716 334.488 43.516 329.188 43.516 L 317.788 43.516 L 317.788 68.116 L 329.588 68.116 C 333.588 68.116 338.288 66.216 338.288 60.816 C 338.45 58.237 337.023 55.82 334.688 54.716 M 328.888 63.016 L 323.888 63.016 L 323.888 48.716 L 328.188 48.716 C 330.888 48.716 331.188 49.816 331.188 50.916 C 331.188 52.416 330.288 53.216 328.588 53.216 L 327.188 53.216 L 324.888 57.716 L 328.888 57.716 C 331.088 57.716 331.988 58.616 331.988 60.516 C 332.188 61.616 331.788 63.016 328.888 63.016" style="fill: rgb(230, 37, 48);"/>
  <path class="cls-3" d="M 351.388 43.116 C 341.919 43.116 336.001 53.366 340.735 61.566 C 345.47 69.766 357.305 69.766 362.04 61.566 C 363.119 59.696 363.688 57.575 363.688 55.416 C 363.693 48.62 358.183 43.11 351.388 43.116 M 351.388 61.916 C 346.384 61.916 343.257 56.499 345.758 52.166 C 346.92 50.155 349.065 48.916 351.388 48.916 C 356.391 48.916 359.519 54.332 357.017 58.666 C 355.856 60.677 353.71 61.916 351.388 61.916" style="fill: rgb(230, 37, 48);"/>
  <path class="cls-1" d="M 267.788 40.216 C 267.263 40.519 266.686 40.722 266.088 40.816 C 265.494 40.932 264.892 40.999 264.288 41.016 C 263.675 41.014 263.067 40.912 262.488 40.716 C 261.989 40.509 261.519 40.24 261.088 39.916 C 260.7 39.55 260.393 39.107 260.188 38.616 C 259.79 37.517 259.79 36.314 260.188 35.216 C 260.393 34.724 260.7 34.281 261.088 33.916 C 261.494 33.555 261.971 33.282 262.488 33.116 C 263.103 32.926 263.743 32.825 264.388 32.816 C 264.993 32.822 265.596 32.889 266.188 33.016 C 266.705 33.182 267.181 33.455 267.588 33.816 L 266.388 35.116 C 266.161 34.893 265.888 34.722 265.588 34.616 C 265.201 34.484 264.796 34.416 264.388 34.416 C 264.045 34.425 263.707 34.492 263.388 34.616 C 262.778 34.826 262.298 35.306 262.088 35.916 C 261.964 36.235 261.897 36.573 261.888 36.916 C 261.897 37.258 261.964 37.596 262.088 37.916 C 262.298 38.526 262.778 39.005 263.388 39.216 C 263.71 39.33 264.046 39.397 264.388 39.416 C 264.724 39.437 265.062 39.404 265.388 39.316 C 265.628 39.234 265.862 39.134 266.088 39.016 L 266.088 37.716 L 264.588 37.716 L 264.588 36.116 L 267.788 36.116 L 267.788 40.216 Z" style="fill: rgb(38, 53, 118);"/>
  <path class="cls-1" d="M 268.888 33.016 L 272.088 33.016 C 272.49 32.999 272.893 33.033 273.288 33.116 C 273.642 33.188 273.981 33.323 274.288 33.516 C 274.568 33.696 274.807 33.935 274.988 34.216 C 275.157 34.556 275.227 34.937 275.188 35.316 C 275.209 35.813 275.069 36.305 274.788 36.716 C 274.469 37.118 273.999 37.372 273.488 37.416 L 275.588 40.716 L 273.388 40.716 L 271.688 37.616 L 270.788 37.616 L 270.788 40.716 L 268.988 40.716 L 268.988 33.016 L 268.888 33.016 Z M 270.688 36.216 L 272.288 36.216 C 272.46 36.231 272.634 36.197 272.788 36.116 C 272.888 36.016 273.088 36.016 273.188 35.816 C 273.278 35.666 273.314 35.489 273.288 35.316 C 273.314 35.142 273.278 34.966 273.188 34.816 L 272.888 34.516 C 272.77 34.436 272.629 34.401 272.488 34.416 L 270.788 34.416 L 270.788 36.216 L 270.688 36.216 Z" style="fill: rgb(38, 53, 118);"/>
  <path class="cls-1" d="M 282.788 37.816 C 282.778 38.256 282.71 38.693 282.588 39.116 C 282.448 39.482 282.245 39.82 281.988 40.116 C 281.677 40.427 281.301 40.666 280.888 40.816 C 280.395 40.931 279.893 40.998 279.388 41.016 C 278.881 41.012 278.377 40.945 277.888 40.816 C 277.486 40.642 277.115 40.406 276.788 40.116 C 276.496 39.847 276.288 39.5 276.188 39.116 C 276.065 38.693 275.998 38.256 275.988 37.816 L 275.988 33.016 L 277.788 33.016 L 277.788 37.716 C 277.771 37.953 277.806 38.192 277.888 38.416 C 277.965 38.595 278.066 38.763 278.188 38.916 C 278.314 39.072 278.491 39.178 278.688 39.216 C 278.909 39.305 279.15 39.339 279.388 39.316 C 279.625 39.332 279.864 39.298 280.088 39.216 C 280.267 39.138 280.435 39.038 280.588 38.916 C 280.688 38.716 280.888 38.616 280.888 38.416 C 280.977 38.194 281.011 37.954 280.988 37.716 L 280.988 33.016 L 282.788 33.016 L 282.788 37.816 Z" style="fill: rgb(38, 53, 118);"/>
  <path class="cls-1" d="M 283.988 33.016 L 286.988 33.016 C 287.39 32.999 287.793 33.033 288.188 33.116 C 288.542 33.188 288.881 33.323 289.188 33.516 C 289.468 33.696 289.707 33.935 289.888 34.216 C 290.057 34.556 290.127 34.937 290.088 35.316 C 290.088 35.691 290.021 36.064 289.888 36.416 C 289.74 36.689 289.535 36.928 289.288 37.116 C 288.981 37.308 288.642 37.444 288.288 37.516 C 287.893 37.599 287.49 37.632 287.088 37.616 L 285.788 37.616 L 285.788 40.616 L 283.988 40.616 L 283.988 33.016 Z M 285.788 36.316 L 287.488 36.316 C 287.588 36.316 287.788 36.216 287.888 36.216 L 288.188 35.916 C 288.278 35.766 288.314 35.589 288.288 35.416 C 288.314 35.242 288.278 35.066 288.188 34.916 C 288.074 34.792 287.938 34.691 287.788 34.616 C 287.634 34.535 287.46 34.5 287.288 34.516 L 285.888 34.516 L 285.888 36.316 L 285.788 36.316 Z" style="fill: rgb(38, 53, 118);"/>
  <path class="cls-1" d="M 290.788 36.916 C 290.781 36.335 290.883 35.759 291.088 35.216 C 291.293 34.724 291.6 34.281 291.988 33.916 C 292.394 33.555 292.871 33.282 293.388 33.116 C 293.963 32.902 294.574 32.801 295.188 32.816 C 295.8 32.818 296.408 32.919 296.988 33.116 C 297.486 33.322 297.957 33.591 298.388 33.916 C 298.775 34.281 299.082 34.724 299.288 35.216 C 299.685 36.314 299.685 37.517 299.288 38.616 C 299.082 39.107 298.775 39.55 298.388 39.916 C 297.981 40.276 297.505 40.549 296.988 40.716 C 296.412 40.929 295.801 41.031 295.188 41.016 C 294.575 41.014 293.967 40.912 293.388 40.716 C 292.889 40.509 292.419 40.24 291.988 39.916 C 291.6 39.55 291.293 39.107 291.088 38.616 C 290.883 38.073 290.781 37.496 290.788 36.916 M 292.688 36.916 C 292.697 37.258 292.764 37.596 292.888 37.916 C 293.098 38.526 293.578 39.005 294.188 39.216 C 294.51 39.33 294.846 39.397 295.188 39.416 C 295.53 39.407 295.868 39.339 296.188 39.216 C 296.798 39.005 297.277 38.526 297.488 37.916 C 297.611 37.596 297.678 37.258 297.688 36.916 C 297.678 36.573 297.611 36.235 297.488 35.916 C 297.277 35.306 296.798 34.826 296.188 34.616 C 295.866 34.501 295.529 34.434 295.188 34.416 C 294.845 34.425 294.507 34.492 294.188 34.616 C 293.578 34.826 293.098 35.306 292.888 35.916 C 292.716 36.219 292.646 36.57 292.688 36.916" style="fill: rgb(38, 53, 118);"/>
</svg>